<?xml version="1.0" encoding="UTF-8" standalone="no"?>
<svg
   xmlns:dc="http://purl.org/dc/elements/1.1/"
   xmlns:cc="http://creativecommons.org/ns#"
   xmlns:rdf="http://www.w3.org/1999/02/22-rdf-syntax-ns#"
   xmlns:svg="http://www.w3.org/2000/svg"
   xmlns="http://www.w3.org/2000/svg"
   xmlns:sodipodi="http://sodipodi.sourceforge.net/DTD/sodipodi-0.dtd"
   xmlns:inkscape="http://www.inkscape.org/namespaces/inkscape"
   width="210mm"
   height="297mm"
   viewBox="0 0 210 297"
   version="1.1"
   id="svg8"
   inkscape:version="1.0.2 (e86c870879, 2021-01-15)"
   sodipodi:docname="logo_with_text.svg">
  <defs
     id="defs2" />
  <sodipodi:namedview
     id="base"
     pagecolor="#ffffff"
     bordercolor="#666666"
     borderopacity="1.0"
     inkscape:pageopacity="0.0"
     inkscape:pageshadow="2"
     inkscape:zoom="1"
     inkscape:cx="400"
     inkscape:cy="616.23579"
     inkscape:document-units="px"
     inkscape:current-layer="layer1"
     inkscape:document-rotation="0"
     showgrid="false"
     inkscape:window-width="1920"
     inkscape:window-height="995"
     inkscape:window-x="0"
     inkscape:window-y="28"
     inkscape:window-maximized="1"
     showborder="false" />
  <metadata
     id="metadata5">
    <rdf:RDF>
      <cc:Work
         rdf:about="">
        <dc:format>image/svg+xml</dc:format>
        <dc:type
           rdf:resource="http://purl.org/dc/dcmitype/StillImage" />
        <dc:title></dc:title>
      </cc:Work>
    </rdf:RDF>
  </metadata>
  <g
     inkscape:label="Layer 1"
     inkscape:groupmode="layer"
     id="layer1">
    <g
       id="g1334"
       transform="translate(-51.341507,87.810614)">
      <path
         id="path1001-8-9"
         style="color:#000000;font-style:normal;font-variant:normal;font-weight:normal;font-stretch:normal;font-size:medium;line-height:normal;font-family:sans-serif;font-variant-ligatures:normal;font-variant-position:normal;font-variant-caps:normal;font-variant-numeric:normal;font-variant-alternates:normal;font-variant-east-asian:normal;font-feature-settings:normal;font-variation-settings:normal;text-indent:0;text-align:start;text-decoration:none;text-decoration-line:none;text-decoration-style:solid;text-decoration-color:#000000;letter-spacing:normal;word-spacing:normal;text-transform:none;writing-mode:lr-tb;direction:ltr;text-orientation:mixed;dominant-baseline:auto;baseline-shift:baseline;text-anchor:start;white-space:normal;shape-padding:0;shape-margin:0;inline-size:0;clip-rule:nonzero;display:inline;overflow:visible;visibility:visible;isolation:auto;mix-blend-mode:normal;color-interpolation:sRGB;color-interpolation-filters:linearRGB;solid-color:#000000;solid-opacity:1;vector-effect:none;fill:#8800aa;fill-opacity:1;fill-rule:nonzero;stroke:#440055;stroke-width:0.303013;stroke-linecap:round;stroke-linejoin:round;stroke-miterlimit:4;stroke-dasharray:none;stroke-dashoffset:700.32;stroke-opacity:1;color-rendering:auto;image-rendering:auto;shape-rendering:auto;text-rendering:auto;enable-background:accumulate;stop-color:#000000"
         d="m 115.73168,41.180192 c -13.51074,-9.02176 -31.62798,-5.890141 -41.386336,6.80919 l 2.863062,1.911805 c 8.712621,-11.15572 24.649824,-13.854344 36.615654,-5.864194 11.96583,7.990152 15.58093,23.744775 8.61592,36.067456 l 2.86216,1.911202 c 7.99008,-13.880085 3.94029,-31.813689 -9.57046,-40.835459 z m -43.676018,10.23816 c -7.989343,13.88007 -3.939096,31.814494 9.571349,40.836055 13.510456,9.021573 31.626959,5.888946 41.385439,-6.809793 L 120.1503,83.533419 C 111.43752,94.688428 95.500765,97.38667 83.535231,89.396719 71.569706,81.40677 67.954409,65.652697 74.91872,53.330158 Z" />
      <g
         id="g1016"
         transform="matrix(0.45809875,0,0,0.45809875,142.02554,175.03514)">
        <path
           id="path1010"
           style="color:#000000;font-style:normal;font-variant:normal;font-weight:normal;font-stretch:normal;font-size:medium;line-height:normal;font-family:sans-serif;font-variant-ligatures:normal;font-variant-position:normal;font-variant-caps:normal;font-variant-numeric:normal;font-variant-alternates:normal;font-variant-east-asian:normal;font-feature-settings:normal;font-variation-settings:normal;text-indent:0;text-align:start;text-decoration:none;text-decoration-line:none;text-decoration-style:solid;text-decoration-color:#000000;letter-spacing:normal;word-spacing:normal;text-transform:none;writing-mode:lr-tb;direction:ltr;text-orientation:mixed;dominant-baseline:auto;baseline-shift:baseline;text-anchor:start;white-space:normal;shape-padding:0;shape-margin:0;inline-size:0;clip-rule:nonzero;display:inline;overflow:visible;visibility:visible;isolation:auto;mix-blend-mode:normal;color-interpolation:sRGB;color-interpolation-filters:linearRGB;solid-color:#000000;solid-opacity:1;vector-effect:none;fill:#000000;fill-opacity:0;fill-rule:nonzero;stroke:#660099;stroke-width:0.529167;stroke-linecap:round;stroke-linejoin:round;stroke-miterlimit:4;stroke-dasharray:none;stroke-dashoffset:700.32;stroke-opacity:1;color-rendering:auto;image-rendering:auto;shape-rendering:auto;text-rendering:auto;enable-background:accumulate;stop-color:#000000"
           d="m -142.85856,-215.9389 c 11.23345,26.4239 41.82064,38.91628 68.38213,27.85299 25.20874,-10.49987 37.90544,-38.51723 29.86209,-64.07066 l -6.12607,7.49137 c 0.003,0.0212 0.005,0.0404 0.0106,0.0608 -2.93361,4.48765 -18.50438,21.7245 -19.29953,21.9545 -0.73468,0.21246 -2.0397,-0.96727 -4.77345,-4.03011 -4.26694,-4.74361 -7.75362,-10.83195 -11.23021,-16.38134 -0.53012,-0.8464 -1.0356,-1.6739 -1.51138,-2.45667 -0.99689,-1.62674 -1.89628,-3.11495 -2.74905,-4.41438 -2.14859,-3.30741 -4.04184,-5.47181 -6.78887,-5.74352 -0.51378,-0.0508 -2.311597,0.57577 -4.92906,1.65534 -8.55018,3.52632 -25.83089,11.87879 -35.65046,17.22736 -0.56084,0.30556 -1.09696,0.60117 -1.6061,0.8856 -0.0106,-0.88283 0.002,-1.76321 0.045,-2.64074 0.7832,-16.69068 10.96022,-32.22182 27.44672,-39.0887 22.56981,-9.4007 48.34316,1.02364 58.06612,23.34351" />
        <path
           id="path1012"
           style="color:#000000;font-style:normal;font-variant:normal;font-weight:normal;font-stretch:normal;font-size:medium;line-height:normal;font-family:sans-serif;font-variant-ligatures:normal;font-variant-position:normal;font-variant-caps:normal;font-variant-numeric:normal;font-variant-alternates:normal;font-variant-east-asian:normal;font-feature-settings:normal;font-variation-settings:normal;text-indent:0;text-align:start;text-decoration:none;text-decoration-line:none;text-decoration-style:solid;text-decoration-color:#000000;letter-spacing:normal;word-spacing:normal;text-transform:none;writing-mode:lr-tb;direction:ltr;text-orientation:mixed;dominant-baseline:auto;baseline-shift:baseline;text-anchor:start;white-space:normal;shape-padding:0;shape-margin:0;inline-size:0;clip-rule:nonzero;display:inline;overflow:visible;visibility:visible;isolation:auto;mix-blend-mode:normal;color-interpolation:sRGB;color-interpolation-filters:linearRGB;solid-color:#000000;solid-opacity:1;vector-effect:none;fill:#000000;fill-opacity:0;fill-rule:nonzero;stroke:#ff6600;stroke-width:0.79375;stroke-linecap:round;stroke-linejoin:round;stroke-miterlimit:4;stroke-dasharray:none;stroke-dashoffset:700.32;stroke-opacity:1;color-rendering:auto;image-rendering:auto;shape-rendering:auto;text-rendering:auto;enable-background:accumulate;stop-color:#000000"
           d="m -48.04973,-260.50249 c -12.36305,-23.97826 -41.3716,-34.87219 -66.71725,-24.31527 l -2.1e-4,2e-5 v 0 c -24.31227,10.12649 -36.98699,36.54712 -30.64252,61.33651 20.8877,-9.82237 22.86764,-11.17221 47.41516,-21.39667 1.32043,0.60499 2.55801,2.56787 4.57418,6.05688 0.0797,0.14368 0.11563,0.32147 0.10039,0.4955 -0.0666,0.65394 -0.16333,1.30421 -0.24911,1.95278 -0.58031,4.41879 -1.26194,8.75211 -2.38233,13.0823 -1.00975,3.88795 -2.36285,7.73751 -4.26819,11.51842 -2.14527,4.25957 -4.99149,8.42643 -8.7783,12.35786 -0.062,0.0712 -0.12062,0.14394 -0.17454,0.21964 0.0737,0.008 0.11005,0.0159 0.14764,0.0186 5.52308,-0.1503 9.02393,-0.93452 11.49329,-2.87233 2.44254,-1.91672 4.6548,-5.60916 6.52767,-12.04533 l -9.2e-4,-1.6e-4 c 2.85849,-7.74689 3.00061,-12.22779 3.72098,-13.7386 0.73806,-1.5478 1.64869,-0.0109 4.21059,4.10059 0.7309,1.15476 1.70688,2.6854 2.81766,4.25477 0.33279,0.47355 0.68922,0.96557 1.06659,1.46789 2.21075,2.80054 4.07569,4.72381 5.66874,5.80315 1.60251,1.0857 2.98773,1.36476 4.3722,0.81143 1.92211,-0.76511 12.00377,-11.44592 18.95159,-20.57562 -1.59492,15.77037 -11.5728,30.1638 -27.27129,36.70247 -22.66702,9.4412 -48.56432,-1.11153 -58.18994,-23.63026" />
      </g>
      <g
         aria-label="Serene"
         id="text1238"
         style="font-style:normal;font-variant:normal;font-weight:normal;font-stretch:normal;font-size:30.6079px;line-height:1.75;font-family:GeosansLight;-inkscape-font-specification:'GeosansLight, Normal';font-variant-ligatures:normal;font-variant-caps:normal;font-variant-numeric:normal;font-variant-east-asian:normal;letter-spacing:0px;word-spacing:0px;stroke-width:1.6397">
        <path
           d="m 74.952291,118.33608 q 0,-2.60167 -1.775259,-4.34632 -0.642765,-0.64277 -1.683434,-1.25492 -1.040669,-0.64277 -2.47924,-1.28554 -2.295593,-1.04067 -3.06079,-1.65282 -1.346748,-1.1631 -1.346748,-2.72411 0,-1.74465 1.285532,-2.81592 1.193708,-1.01006 2.999574,-1.01006 1.714043,0 2.785319,0.67337 0.857022,0.48973 1.46918,1.49979 l 1.193708,-0.52034 q -1.591611,-2.87714 -5.448207,-2.87714 -2.3262,0 -3.917811,1.40796 -1.622219,1.37736 -1.622219,3.64234 0,2.26499 1.591611,3.64234 0.948845,0.85703 3.550517,2.02013 1.377355,0.61215 2.264984,1.10188 0.887629,0.48973 1.31614,0.88763 1.622219,1.43857 1.622219,3.61173 0,2.29559 -1.377356,3.4893 -1.346747,1.1631 -3.703556,1.1631 -4.132066,0 -5.203343,-3.91781 l -1.254924,0.42851 q 1.438572,4.74423 6.458267,4.74423 1.622219,0 2.815927,-0.42851 3.519909,-1.31614 3.519909,-5.47882 z"
           style="font-style:normal;font-variant:normal;font-weight:normal;font-stretch:normal;font-size:30.6079px;font-family:GeosansLight;-inkscape-font-specification:'GeosansLight, Normal';font-variant-ligatures:normal;font-variant-caps:normal;font-variant-numeric:normal;font-variant-east-asian:normal;stroke-width:1.6397"
           id="path1302" />
        <path
           d="m 90.286825,117.41784 q 0,-2.78531 -1.867082,-4.52997 -1.836474,-1.74465 -4.652401,-1.74465 -2.846535,0 -4.713617,1.86709 -1.836474,1.83647 -1.836474,4.68301 0,2.81592 1.867082,4.683 1.836474,1.86709 4.683009,1.86709 1.193708,0 2.142553,-0.30608 2.47924,-0.79581 3.672948,-3.06079 L 88.45035,120.3562 q -1.040668,1.68344 -2.356808,2.23438 -1.040668,0.42851 -2.3262,0.42851 -2.509848,0 -3.948419,-1.5304 -1.377356,-1.49978 -1.377356,-4.07085 z m -1.407964,-1.1937 H 78.625214 q 1.224316,-3.8566 5.142128,-3.8566 1.867082,0 3.305653,1.04067 1.499787,1.07128 1.805866,2.81593 z"
           style="font-style:normal;font-variant:normal;font-weight:normal;font-stretch:normal;font-size:30.6079px;font-family:GeosansLight;-inkscape-font-specification:'GeosansLight, Normal';font-variant-ligatures:normal;font-variant-caps:normal;font-variant-numeric:normal;font-variant-east-asian:normal;stroke-width:1.6397"
           id="path1304" />
        <path
           d="m 99.836482,112.18389 q -0.765198,-0.55094 -1.377356,-0.76519 -0.612158,-0.21426 -1.561002,-0.21426 -0.765198,0 -1.407964,0.58155 -0.642766,0.58155 -1.040669,1.28553 v -1.71404 h -1.254923 v 12.64106 h 1.254923 v -8.32535 q 0,-0.48972 0.183648,-1.07127 0.214255,-0.58155 0.550942,-1.04067 0.336687,-0.48973 0.795806,-0.79581 0.459118,-0.33668 0.979452,-0.33668 0.612158,0 1.163101,0.21425 0.550942,0.21426 1.040668,0.58155 z"
           style="font-style:normal;font-variant:normal;font-weight:normal;font-stretch:normal;font-size:30.6079px;font-family:GeosansLight;-inkscape-font-specification:'GeosansLight, Normal';font-variant-ligatures:normal;font-variant-caps:normal;font-variant-numeric:normal;font-variant-east-asian:normal;stroke-width:1.6397"
           id="path1306" />
        <path
           d="m 112.96726,117.41784 q 0,-2.78531 -1.86709,-4.52997 -1.83647,-1.74465 -4.6524,-1.74465 -2.84653,0 -4.71361,1.86709 -1.836478,1.83647 -1.836478,4.68301 0,2.81592 1.867078,4.683 1.83648,1.86709 4.68301,1.86709 1.19371,0 2.14256,-0.30608 2.47924,-0.79581 3.67294,-3.06079 l -1.13249,-0.52034 q -1.04067,1.68344 -2.35681,2.23438 -1.04067,0.42851 -2.3262,0.42851 -2.50984,0 -3.94842,-1.5304 -1.37735,-1.49978 -1.37735,-4.07085 z m -1.40797,-1.1937 h -10.25364 q 1.22431,-3.8566 5.14212,-3.8566 1.86708,0 3.30566,1.04067 1.49978,1.07128 1.80586,2.81593 z"
           style="font-style:normal;font-variant:normal;font-weight:normal;font-stretch:normal;font-size:30.6079px;font-family:GeosansLight;-inkscape-font-specification:'GeosansLight, Normal';font-variant-ligatures:normal;font-variant-caps:normal;font-variant-numeric:normal;font-variant-east-asian:normal;stroke-width:1.6397"
           id="path1308" />
        <path
           d="m 125.63892,123.99854 v -7.68258 q 0,-2.41802 -1.25492,-3.76477 -1.25493,-1.34675 -3.61174,-1.34675 -2.78532,0 -3.64234,1.68343 v -1.53039 H 115.875 v 12.64106 h 1.25492 v -7.68258 q 0,-1.80587 0.94885,-2.84654 0.91823,-1.04066 2.69349,-1.04066 3.61174,0 3.61174,4.00963 v 7.56015 z"
           style="font-style:normal;font-variant:normal;font-weight:normal;font-stretch:normal;font-size:30.6079px;font-family:GeosansLight;-inkscape-font-specification:'GeosansLight, Normal';font-variant-ligatures:normal;font-variant-caps:normal;font-variant-numeric:normal;font-variant-east-asian:normal;stroke-width:1.6397"
           id="path1310" />
        <path
           d="m 141.76923,117.41784 q 0,-2.78531 -1.86708,-4.52997 -1.83648,-1.74465 -4.65241,-1.74465 -2.84653,0 -4.71361,1.86709 -1.83648,1.83647 -1.83648,4.68301 0,2.81592 1.86709,4.683 1.83647,1.86709 4.683,1.86709 1.19371,0 2.14256,-0.30608 2.47924,-0.79581 3.67295,-3.06079 l -1.1325,-0.52034 q -1.04067,1.68344 -2.35681,2.23438 -1.04066,0.42851 -2.3262,0.42851 -2.50984,0 -3.94841,-1.5304 -1.37736,-1.49978 -1.37736,-4.07085 z m -1.40797,-1.1937 h -10.25364 q 1.22431,-3.8566 5.14212,-3.8566 1.86709,0 3.30566,1.04067 1.49978,1.07128 1.80586,2.81593 z"
           style="font-style:normal;font-variant:normal;font-weight:normal;font-stretch:normal;font-size:30.6079px;font-family:GeosansLight;-inkscape-font-specification:'GeosansLight, Normal';font-variant-ligatures:normal;font-variant-caps:normal;font-variant-numeric:normal;font-variant-east-asian:normal;stroke-width:1.6397"
           id="path1312" />
      </g>
    </g>
    <g
       aria-label="Serene"
       id="text1287"
       style="font-style:normal;font-variant:normal;font-weight:normal;font-stretch:normal;font-size:43.249px;line-height:1.75;font-family:GeosansLight;-inkscape-font-specification:'GeosansLight, Normal';font-variant-ligatures:normal;font-variant-caps:normal;font-variant-numeric:normal;font-variant-east-asian:normal;letter-spacing:0px;word-spacing:0px;stroke-width:2.3169"
       transform="translate(-54.725811,21.166912)">
      <path
         d="m 158.92091,70.041789 q 0,-3.676165 -2.50844,-6.141358 -0.90823,-0.908229 -2.3787,-1.773209 -1.47046,-0.908229 -3.50316,-1.816458 -3.24368,-1.470466 -4.3249,-2.335446 -1.90296,-1.643462 -1.90296,-3.849161 0,-2.465193 1.81646,-3.978908 1.68671,-1.427217 4.2384,-1.427217 2.42194,0 3.93566,0.951478 1.21097,0.691984 2.07595,2.119201 l 1.68671,-0.735233 q -2.24895,-4.065406 -7.69832,-4.065406 -3.28692,0 -5.53587,1.989454 -2.2922,1.946205 -2.2922,5.146631 0,3.200426 2.24895,5.146631 1.34072,1.210972 5.01688,2.854434 1.94621,0.86498 3.20043,1.556964 1.25422,0.691984 1.85971,1.254221 2.29219,2.032703 2.29219,5.103382 0,3.243675 -1.9462,4.930386 -1.90296,1.643462 -5.23313,1.643462 -5.83862,0 -7.35233,-5.535872 l -1.77321,0.605486 q 2.0327,6.703595 9.12554,6.703595 2.2922,0 3.97891,-0.605486 4.97363,-1.859707 4.97363,-7.741571 z"
         style="font-style:normal;font-variant:normal;font-weight:normal;font-stretch:normal;font-size:43.249px;font-family:GeosansLight;-inkscape-font-specification:'GeosansLight, Normal';font-variant-ligatures:normal;font-variant-caps:normal;font-variant-numeric:normal;font-variant-east-asian:normal;stroke-width:2.3169"
         id="path1289" />
      <path
         d="m 180.58863,68.744319 q 0,-3.935659 -2.63819,-6.400852 -2.59494,-2.465193 -6.57385,-2.465193 -4.02216,0 -6.66035,2.638189 -2.59494,2.59494 -2.59494,6.617097 0,3.978908 2.63819,6.617097 2.59494,2.638189 6.6171,2.638189 1.68671,0 3.02743,-0.43249 3.50317,-1.124474 5.18988,-4.3249 l -1.60021,-0.735233 q -1.47047,2.378695 -3.33018,3.157177 -1.47046,0.605486 -3.28692,0.605486 -3.54642,0 -5.57912,-2.16245 -1.94621,-2.119201 -1.94621,-5.752117 z m -1.98946,-1.686711 h -14.48841 q 1.72996,-5.449374 7.26583,-5.449374 2.63819,0 4.67089,1.470466 2.1192,1.513715 2.55169,3.978908 z"
         style="font-style:normal;font-variant:normal;font-weight:normal;font-stretch:normal;font-size:43.249px;font-family:GeosansLight;-inkscape-font-specification:'GeosansLight, Normal';font-variant-ligatures:normal;font-variant-caps:normal;font-variant-numeric:normal;font-variant-east-asian:normal;stroke-width:2.3169"
         id="path1291" />
      <path
         d="m 194.0823,61.34874 q -1.08122,-0.778482 -1.9462,-1.081225 -0.86498,-0.302743 -2.2057,-0.302743 -1.08123,0 -1.98946,0.821731 -0.90823,0.821731 -1.47046,1.816458 v -2.421944 h -1.77321 v 17.861837 h 1.77321 V 66.279126 q 0,-0.691984 0.25949,-1.513715 0.30274,-0.821731 0.77848,-1.470466 0.47574,-0.691984 1.12448,-1.124474 0.64873,-0.475739 1.38397,-0.475739 0.86498,0 1.64346,0.302743 0.77848,0.302743 1.47046,0.821731 z"
         style="font-style:normal;font-variant:normal;font-weight:normal;font-stretch:normal;font-size:43.249px;font-family:GeosansLight;-inkscape-font-specification:'GeosansLight, Normal';font-variant-ligatures:normal;font-variant-caps:normal;font-variant-numeric:normal;font-variant-east-asian:normal;stroke-width:2.3169"
         id="path1293" />
      <path
         d="m 212.6361,68.744319 q 0,-3.935659 -2.63819,-6.400852 -2.59494,-2.465193 -6.57385,-2.465193 -4.02215,0 -6.66034,2.638189 -2.59494,2.59494 -2.59494,6.617097 0,3.978908 2.63819,6.617097 2.59494,2.638189 6.61709,2.638189 1.68671,0 3.02743,-0.43249 3.50317,-1.124474 5.18988,-4.3249 l -1.60021,-0.735233 q -1.47047,2.378695 -3.33017,3.157177 -1.47047,0.605486 -3.28693,0.605486 -3.54642,0 -5.57912,-2.16245 -1.9462,-2.119201 -1.9462,-5.752117 z m -1.98945,-1.686711 h -14.48842 q 1.72996,-5.449374 7.26583,-5.449374 2.63819,0 4.6709,1.470466 2.1192,1.513715 2.55169,3.978908 z"
         style="font-style:normal;font-variant:normal;font-weight:normal;font-stretch:normal;font-size:43.249px;font-family:GeosansLight;-inkscape-font-specification:'GeosansLight, Normal';font-variant-ligatures:normal;font-variant-caps:normal;font-variant-numeric:normal;font-variant-east-asian:normal;stroke-width:2.3169"
         id="path1295" />
      <path
         d="M 230.54118,78.042854 V 67.187355 q 0,-3.416671 -1.77321,-5.319627 -1.77321,-1.902956 -5.10338,-1.902956 -3.93566,0 -5.14663,2.378695 v -2.16245 h -1.77321 v 17.861837 h 1.77321 V 67.187355 q 0,-2.551691 1.34071,-4.022157 1.29747,-1.470466 3.80592,-1.470466 5.10338,0 5.10338,5.665619 v 10.682503 z"
         style="font-style:normal;font-variant:normal;font-weight:normal;font-stretch:normal;font-size:43.249px;font-family:GeosansLight;-inkscape-font-specification:'GeosansLight, Normal';font-variant-ligatures:normal;font-variant-caps:normal;font-variant-numeric:normal;font-variant-east-asian:normal;stroke-width:2.3169"
         id="path1297" />
      <path
         d="m 253.33333,68.744319 q 0,-3.935659 -2.63819,-6.400852 -2.59494,-2.465193 -6.57385,-2.465193 -4.02216,0 -6.66035,2.638189 -2.59494,2.59494 -2.59494,6.617097 0,3.978908 2.63819,6.617097 2.59494,2.638189 6.6171,2.638189 1.68671,0 3.02743,-0.43249 3.50317,-1.124474 5.18988,-4.3249 l -1.60021,-0.735233 q -1.47047,2.378695 -3.33018,3.157177 -1.47046,0.605486 -3.28692,0.605486 -3.54642,0 -5.57912,-2.16245 -1.94621,-2.119201 -1.94621,-5.752117 z m -1.98946,-1.686711 h -14.48841 q 1.72996,-5.449374 7.26583,-5.449374 2.63819,0 4.67089,1.470466 2.1192,1.513715 2.55169,3.978908 z"
         style="font-style:normal;font-variant:normal;font-weight:normal;font-stretch:normal;font-size:43.249px;font-family:GeosansLight;-inkscape-font-specification:'GeosansLight, Normal';font-variant-ligatures:normal;font-variant-caps:normal;font-variant-numeric:normal;font-variant-east-asian:normal;stroke-width:2.3169"
         id="path1299" />
    </g>
    <g
       id="g944">
      <path
         id="path1315"
         style="color:#000000;font-style:normal;font-variant:normal;font-weight:normal;font-stretch:normal;font-size:medium;line-height:normal;font-family:sans-serif;font-variant-ligatures:normal;font-variant-position:normal;font-variant-caps:normal;font-variant-numeric:normal;font-variant-alternates:normal;font-variant-east-asian:normal;font-feature-settings:normal;font-variation-settings:normal;text-indent:0;text-align:start;text-decoration:none;text-decoration-line:none;text-decoration-style:solid;text-decoration-color:#000000;letter-spacing:normal;word-spacing:normal;text-transform:none;writing-mode:lr-tb;direction:ltr;text-orientation:mixed;dominant-baseline:auto;baseline-shift:baseline;text-anchor:start;white-space:normal;shape-padding:0;shape-margin:0;inline-size:0;clip-rule:nonzero;display:inline;overflow:visible;visibility:visible;isolation:auto;mix-blend-mode:normal;color-interpolation:sRGB;color-interpolation-filters:linearRGB;solid-color:#000000;solid-opacity:1;vector-effect:none;fill:#8800aa;fill-opacity:1;fill-rule:nonzero;stroke:#440055;stroke-width:0.303013;stroke-linecap:round;stroke-linejoin:round;stroke-miterlimit:4;stroke-dasharray:none;stroke-dashoffset:700.32;stroke-opacity:1;color-rendering:auto;image-rendering:auto;shape-rendering:auto;text-rendering:auto;enable-background:accumulate;stop-color:#000000"
         d="m 60.686302,58.319486 c -13.510743,-9.02176 -31.627983,-5.890141 -41.386339,6.80919 l 2.863062,1.911805 c 8.712621,-11.15572 24.649824,-13.854344 36.615657,-5.864194 11.96583,7.990152 15.58093,23.744775 8.61592,36.067456 l 2.86216,1.911202 c 7.99008,-13.880085 3.94029,-31.813689 -9.57046,-40.835459 z m -43.676021,10.23816 c -7.9893433,13.88007 -3.939096,31.814494 9.571349,40.836054 13.510456,9.02157 31.626962,5.88895 41.385442,-6.80979 l -2.86215,-1.9112 c -8.71278,11.15501 -24.649538,13.85325 -36.615072,5.8633 C 16.524325,98.546064 12.909028,82.791991 19.873339,70.469452 Z" />
      <g
         id="g1321"
         transform="matrix(0.45809875,0,0,0.45809875,86.980162,192.17444)">
        <path
           id="path1317"
           style="color:#000000;font-style:normal;font-variant:normal;font-weight:normal;font-stretch:normal;font-size:medium;line-height:normal;font-family:sans-serif;font-variant-ligatures:normal;font-variant-position:normal;font-variant-caps:normal;font-variant-numeric:normal;font-variant-alternates:normal;font-variant-east-asian:normal;font-feature-settings:normal;font-variation-settings:normal;text-indent:0;text-align:start;text-decoration:none;text-decoration-line:none;text-decoration-style:solid;text-decoration-color:#000000;letter-spacing:normal;word-spacing:normal;text-transform:none;writing-mode:lr-tb;direction:ltr;text-orientation:mixed;dominant-baseline:auto;baseline-shift:baseline;text-anchor:start;white-space:normal;shape-padding:0;shape-margin:0;inline-size:0;clip-rule:nonzero;display:inline;overflow:visible;visibility:visible;isolation:auto;mix-blend-mode:normal;color-interpolation:sRGB;color-interpolation-filters:linearRGB;solid-color:#000000;solid-opacity:1;vector-effect:none;fill:#000000;fill-opacity:0;fill-rule:nonzero;stroke:#660099;stroke-width:0.529167;stroke-linecap:round;stroke-linejoin:round;stroke-miterlimit:4;stroke-dasharray:none;stroke-dashoffset:700.32;stroke-opacity:1;color-rendering:auto;image-rendering:auto;shape-rendering:auto;text-rendering:auto;enable-background:accumulate;stop-color:#000000"
           d="m -142.85856,-215.9389 c 11.23345,26.4239 41.82064,38.91628 68.38213,27.85299 25.20874,-10.49987 37.90544,-38.51723 29.86209,-64.07066 l -6.12607,7.49137 c 0.003,0.0212 0.005,0.0404 0.0106,0.0608 -2.93361,4.48765 -18.50438,21.7245 -19.29953,21.9545 -0.73468,0.21246 -2.0397,-0.96727 -4.77345,-4.03011 -4.26694,-4.74361 -7.75362,-10.83195 -11.23021,-16.38134 -0.53012,-0.8464 -1.0356,-1.6739 -1.51138,-2.45667 -0.99689,-1.62674 -1.89628,-3.11495 -2.74905,-4.41438 -2.14859,-3.30741 -4.04184,-5.47181 -6.78887,-5.74352 -0.51378,-0.0508 -2.311597,0.57577 -4.92906,1.65534 -8.55018,3.52632 -25.83089,11.87879 -35.65046,17.22736 -0.56084,0.30556 -1.09696,0.60117 -1.6061,0.8856 -0.0106,-0.88283 0.002,-1.76321 0.045,-2.64074 0.7832,-16.69068 10.96022,-32.22182 27.44672,-39.0887 22.56981,-9.4007 48.34316,1.02364 58.06612,23.34351" />
        <path
           id="path1319"
           style="color:#000000;font-style:normal;font-variant:normal;font-weight:normal;font-stretch:normal;font-size:medium;line-height:normal;font-family:sans-serif;font-variant-ligatures:normal;font-variant-position:normal;font-variant-caps:normal;font-variant-numeric:normal;font-variant-alternates:normal;font-variant-east-asian:normal;font-feature-settings:normal;font-variation-settings:normal;text-indent:0;text-align:start;text-decoration:none;text-decoration-line:none;text-decoration-style:solid;text-decoration-color:#000000;letter-spacing:normal;word-spacing:normal;text-transform:none;writing-mode:lr-tb;direction:ltr;text-orientation:mixed;dominant-baseline:auto;baseline-shift:baseline;text-anchor:start;white-space:normal;shape-padding:0;shape-margin:0;inline-size:0;clip-rule:nonzero;display:inline;overflow:visible;visibility:visible;isolation:auto;mix-blend-mode:normal;color-interpolation:sRGB;color-interpolation-filters:linearRGB;solid-color:#000000;solid-opacity:1;vector-effect:none;fill:#000000;fill-opacity:0;fill-rule:nonzero;stroke:#ff6600;stroke-width:0.79375;stroke-linecap:round;stroke-linejoin:round;stroke-miterlimit:4;stroke-dasharray:none;stroke-dashoffset:700.32;stroke-opacity:1;color-rendering:auto;image-rendering:auto;shape-rendering:auto;text-rendering:auto;enable-background:accumulate;stop-color:#000000"
           d="m -48.04973,-260.50249 c -12.36305,-23.97826 -41.3716,-34.87219 -66.71725,-24.31527 l -2.1e-4,2e-5 v 0 c -24.31227,10.12649 -36.98699,36.54712 -30.64252,61.33651 20.8877,-9.82237 22.86764,-11.17221 47.41516,-21.39667 1.32043,0.60499 2.55801,2.56787 4.57418,6.05688 0.0797,0.14368 0.11563,0.32147 0.10039,0.4955 -0.0666,0.65394 -0.16333,1.30421 -0.24911,1.95278 -0.58031,4.41879 -1.26194,8.75211 -2.38233,13.0823 -1.00975,3.88795 -2.36285,7.73751 -4.26819,11.51842 -2.14527,4.25957 -4.99149,8.42643 -8.7783,12.35786 -0.062,0.0712 -0.12062,0.14394 -0.17454,0.21964 0.0737,0.008 0.11005,0.0159 0.14764,0.0186 5.52308,-0.1503 9.02393,-0.93452 11.49329,-2.87233 2.44254,-1.91672 4.6548,-5.60916 6.52767,-12.04533 l -9.2e-4,-1.6e-4 c 2.85849,-7.74689 3.00061,-12.22779 3.72098,-13.7386 0.73806,-1.5478 1.64869,-0.0109 4.21059,4.10059 0.7309,1.15476 1.70688,2.6854 2.81766,4.25477 0.33279,0.47355 0.68922,0.96557 1.06659,1.46789 2.21075,2.80054 4.07569,4.72381 5.66874,5.80315 1.60251,1.0857 2.98773,1.36476 4.3722,0.81143 1.92211,-0.76511 12.00377,-11.44592 18.95159,-20.57562 -1.59492,15.77037 -11.5728,30.1638 -27.27129,36.70247 -22.66702,9.4412 -48.56432,-1.11153 -58.18994,-23.63026" />
      </g>
    </g>
  </g>
</svg>
