<?xml version="1.0" encoding="UTF-8" standalone="no"?>
<svg
   xmlns:dc="http://purl.org/dc/elements/1.1/"
   xmlns:cc="http://creativecommons.org/ns#"
   xmlns:rdf="http://www.w3.org/1999/02/22-rdf-syntax-ns#"
   xmlns:svg="http://www.w3.org/2000/svg"
   xmlns="http://www.w3.org/2000/svg"
   xmlns:sodipodi="http://sodipodi.sourceforge.net/DTD/sodipodi-0.dtd"
   xmlns:inkscape="http://www.inkscape.org/namespaces/inkscape"
   width="210mm"
   height="297mm"
   viewBox="0 0 210 297"
   version="1.1"
   id="svg8"
   inkscape:version="1.0.2 (e86c870879, 2021-01-15)"
   sodipodi:docname="logo_with_text.svg">
  <defs
     id="defs2" />
  <sodipodi:namedview
     id="base"
     pagecolor="#ffffff"
     bordercolor="#666666"
     borderopacity="1.0"
     inkscape:pageopacity="0.0"
     inkscape:pageshadow="2"
     inkscape:zoom="4"
     inkscape:cx="126.81776"
     inkscape:cy="146.28967"
     inkscape:document-units="px"
     inkscape:current-layer="layer1"
     inkscape:document-rotation="0"
     showgrid="false"
     inkscape:window-width="1920"
     inkscape:window-height="995"
     inkscape:window-x="0"
     inkscape:window-y="28"
     inkscape:window-maximized="1"
     showborder="true"
     inkscape:object-paths="true"
     inkscape:snap-intersection-paths="true" />
  <metadata
     id="metadata5">
    <rdf:RDF>
      <cc:Work
         rdf:about="">
        <dc:format>image/svg+xml</dc:format>
        <dc:type
           rdf:resource="http://purl.org/dc/dcmitype/StillImage" />
        <dc:title />
      </cc:Work>
    </rdf:RDF>
  </metadata>
  <g
     inkscape:label="Layer 1"
     inkscape:groupmode="layer"
     id="layer1">
    <path
       id="path1001-8-9"
       style="color:#000000;font-style:normal;font-variant:normal;font-weight:normal;font-stretch:normal;font-size:medium;line-height:normal;font-family:sans-serif;font-variant-ligatures:normal;font-variant-position:normal;font-variant-caps:normal;font-variant-numeric:normal;font-variant-alternates:normal;font-variant-east-asian:normal;font-feature-settings:normal;font-variation-settings:normal;text-indent:0;text-align:start;text-decoration:none;text-decoration-line:none;text-decoration-style:solid;text-decoration-color:#000000;letter-spacing:normal;word-spacing:normal;text-transform:none;writing-mode:lr-tb;direction:ltr;text-orientation:mixed;dominant-baseline:auto;baseline-shift:baseline;text-anchor:start;white-space:normal;shape-padding:0;shape-margin:0;inline-size:0;clip-rule:nonzero;display:inline;overflow:visible;visibility:visible;isolation:auto;mix-blend-mode:normal;color-interpolation:sRGB;color-interpolation-filters:linearRGB;solid-color:#000000;solid-opacity:1;vector-effect:none;fill:#8800aa;fill-opacity:1;fill-rule:nonzero;stroke:#440055;stroke-width:0.303013;stroke-linecap:round;stroke-linejoin:round;stroke-miterlimit:4;stroke-dasharray:none;stroke-dashoffset:700.32;stroke-opacity:1;color-rendering:auto;image-rendering:auto;shape-rendering:auto;text-rendering:auto;enable-background:accumulate;stop-color:#000000"
       d="m 75.198339,120.89207 c -13.51075,-9.02176 -31.62798,-5.89015 -41.38634,6.80919 l 2.86306,1.9118 c 8.71262,-11.15572 24.64982,-13.85434 36.61566,-5.86419 11.96582,7.99015 15.58092,23.74477 8.61591,36.06745 l 2.86216,1.9112 c 7.99009,-13.88008 3.94029,-31.81368 -9.57045,-40.83545 z m -43.67602,10.23816 c -7.98935,13.88007 -3.9391,31.81449 9.57135,40.83605 13.51045,9.02157 31.62696,5.88895 41.38543,-6.80979 l -2.86215,-1.9112 c -8.71278,11.15501 -24.64953,13.85325 -36.61506,5.8633 -11.96553,-7.98995 -15.58083,-23.74402 -8.61651,-36.06656 z" />
    <g
       id="g1016"
       transform="matrix(0.45809875,0,0,0.45809875,101.4922,254.74701)">
      <path
         id="path1010"
         style="color:#000000;font-style:normal;font-variant:normal;font-weight:normal;font-stretch:normal;font-size:medium;line-height:normal;font-family:sans-serif;font-variant-ligatures:normal;font-variant-position:normal;font-variant-caps:normal;font-variant-numeric:normal;font-variant-alternates:normal;font-variant-east-asian:normal;font-feature-settings:normal;font-variation-settings:normal;text-indent:0;text-align:start;text-decoration:none;text-decoration-line:none;text-decoration-style:solid;text-decoration-color:#000000;letter-spacing:normal;word-spacing:normal;text-transform:none;writing-mode:lr-tb;direction:ltr;text-orientation:mixed;dominant-baseline:auto;baseline-shift:baseline;text-anchor:start;white-space:normal;shape-padding:0;shape-margin:0;inline-size:0;clip-rule:nonzero;display:inline;overflow:visible;visibility:visible;isolation:auto;mix-blend-mode:normal;color-interpolation:sRGB;color-interpolation-filters:linearRGB;solid-color:#000000;solid-opacity:1;vector-effect:none;fill:#000000;fill-opacity:0;fill-rule:nonzero;stroke:#660099;stroke-width:0.529167;stroke-linecap:round;stroke-linejoin:round;stroke-miterlimit:4;stroke-dasharray:none;stroke-dashoffset:700.32;stroke-opacity:1;color-rendering:auto;image-rendering:auto;shape-rendering:auto;text-rendering:auto;enable-background:accumulate;stop-color:#000000"
         d="m -142.85856,-215.9389 c 11.23345,26.4239 41.82064,38.91628 68.38213,27.85299 25.20874,-10.49987 37.90544,-38.51723 29.86209,-64.07066 l -6.12607,7.49137 c 0.003,0.0212 0.005,0.0404 0.0106,0.0608 -2.93361,4.48765 -18.50438,21.7245 -19.29953,21.9545 -0.73468,0.21246 -2.0397,-0.96727 -4.77345,-4.03011 -4.26694,-4.74361 -7.75362,-10.83195 -11.23021,-16.38134 -0.53012,-0.8464 -1.0356,-1.6739 -1.51138,-2.45667 -0.99689,-1.62674 -1.89628,-3.11495 -2.74905,-4.41438 -2.14859,-3.30741 -4.04184,-5.47181 -6.78887,-5.74352 -0.51378,-0.0508 -2.311597,0.57577 -4.92906,1.65534 -8.55018,3.52632 -25.83089,11.87879 -35.65046,17.22736 -0.56084,0.30556 -1.09696,0.60117 -1.6061,0.8856 -0.0106,-0.88283 0.002,-1.76321 0.045,-2.64074 0.7832,-16.69068 10.96022,-32.22182 27.44672,-39.0887 22.56981,-9.4007 48.34316,1.02364 58.06612,23.34351" />
      <path
         id="path1012"
         style="color:#000000;font-style:normal;font-variant:normal;font-weight:normal;font-stretch:normal;font-size:medium;line-height:normal;font-family:sans-serif;font-variant-ligatures:normal;font-variant-position:normal;font-variant-caps:normal;font-variant-numeric:normal;font-variant-alternates:normal;font-variant-east-asian:normal;font-feature-settings:normal;font-variation-settings:normal;text-indent:0;text-align:start;text-decoration:none;text-decoration-line:none;text-decoration-style:solid;text-decoration-color:#000000;letter-spacing:normal;word-spacing:normal;text-transform:none;writing-mode:lr-tb;direction:ltr;text-orientation:mixed;dominant-baseline:auto;baseline-shift:baseline;text-anchor:start;white-space:normal;shape-padding:0;shape-margin:0;inline-size:0;clip-rule:nonzero;display:inline;overflow:visible;visibility:visible;isolation:auto;mix-blend-mode:normal;color-interpolation:sRGB;color-interpolation-filters:linearRGB;solid-color:#000000;solid-opacity:1;vector-effect:none;fill:#000000;fill-opacity:0;fill-rule:nonzero;stroke:#ff6600;stroke-width:0.79375;stroke-linecap:round;stroke-linejoin:round;stroke-miterlimit:4;stroke-dasharray:none;stroke-dashoffset:700.32;stroke-opacity:1;color-rendering:auto;image-rendering:auto;shape-rendering:auto;text-rendering:auto;enable-background:accumulate;stop-color:#000000"
         d="m -48.04973,-260.50249 c -12.36305,-23.97826 -41.3716,-34.87219 -66.71725,-24.31527 l -2.1e-4,2e-5 v 0 c -24.31227,10.12649 -36.98699,36.54712 -30.64252,61.33651 20.8877,-9.82237 22.86764,-11.17221 47.41516,-21.39667 1.32043,0.60499 2.55801,2.56787 4.57418,6.05688 0.0797,0.14368 0.11563,0.32147 0.10039,0.4955 -0.0666,0.65394 -0.16333,1.30421 -0.24911,1.95278 -0.58031,4.41879 -1.26194,8.75211 -2.38233,13.0823 -1.00975,3.88795 -2.36285,7.73751 -4.26819,11.51842 -2.14527,4.25957 -4.99149,8.42643 -8.7783,12.35786 -0.062,0.0712 -0.12062,0.14394 -0.17454,0.21964 0.0737,0.008 0.11005,0.0159 0.14764,0.0186 5.52308,-0.1503 9.02393,-0.93452 11.49329,-2.87233 2.44254,-1.91672 4.6548,-5.60916 6.52767,-12.04533 l -9.2e-4,-1.6e-4 c 2.85849,-7.74689 3.00061,-12.22779 3.72098,-13.7386 0.73806,-1.5478 1.64869,-0.0109 4.21059,4.10059 0.7309,1.15476 1.70688,2.6854 2.81766,4.25477 0.33279,0.47355 0.68922,0.96557 1.06659,1.46789 2.21075,2.80054 4.07569,4.72381 5.66874,5.80315 1.60251,1.0857 2.98773,1.36476 4.3722,0.81143 1.92211,-0.76511 12.00377,-11.44592 18.95159,-20.57562 -1.59492,15.77037 -11.5728,30.1638 -27.27129,36.70247 -22.66702,9.4412 -48.56432,-1.11153 -58.18994,-23.63026" />
    </g>
    <path
       id="path1315"
       style="color:#000000;font-style:normal;font-variant:normal;font-weight:normal;font-stretch:normal;font-size:medium;line-height:normal;font-family:sans-serif;font-variant-ligatures:normal;font-variant-position:normal;font-variant-caps:normal;font-variant-numeric:normal;font-variant-alternates:normal;font-variant-east-asian:normal;font-feature-settings:normal;font-variation-settings:normal;text-indent:0;text-align:start;text-decoration:none;text-decoration-line:none;text-decoration-style:solid;text-decoration-color:#000000;letter-spacing:normal;word-spacing:normal;text-transform:none;writing-mode:lr-tb;direction:ltr;text-orientation:mixed;dominant-baseline:auto;baseline-shift:baseline;text-anchor:start;white-space:normal;shape-padding:0;shape-margin:0;inline-size:0;clip-rule:nonzero;display:inline;overflow:visible;visibility:visible;isolation:auto;mix-blend-mode:normal;color-interpolation:sRGB;color-interpolation-filters:linearRGB;solid-color:#000000;solid-opacity:1;vector-effect:none;fill:#8800aa;fill-opacity:1;fill-rule:nonzero;stroke:#440055;stroke-width:0.303013;stroke-linecap:round;stroke-linejoin:round;stroke-miterlimit:4;stroke-dasharray:none;stroke-dashoffset:700.32;stroke-opacity:1;color-rendering:auto;image-rendering:auto;shape-rendering:auto;text-rendering:auto;enable-background:accumulate;stop-color:#000000"
       d="m 51.582125,27.549798 c -13.51074,-9.021764 -31.62798,-5.890145 -41.38633,6.80919 l 2.86306,1.9118 c 8.71262,-11.155719 24.64982,-13.854343 36.61565,-5.86419 11.96583,7.99015 15.58093,23.74477 8.61592,36.067455 l 2.86216,1.9112 c 7.99008,-13.880085 3.94029,-31.813685 -9.57046,-40.835455 z m -43.67602,10.23816 c -7.98933997,13.88007 -3.93909,31.814495 9.57135,40.836055 13.51046,9.02157 31.62696,5.88895 41.38544,-6.80979 l -2.86215,-1.9112 c -8.71278,11.15501 -24.64953,13.85325 -36.61507,5.8633 -11.96552,-7.98995 -15.58082,-23.744025 -8.61651,-36.066565 z" />
    <path
       id="path1317"
       style="color:#000000;font-style:normal;font-variant:normal;font-weight:normal;font-stretch:normal;font-size:medium;line-height:normal;font-family:sans-serif;font-variant-ligatures:normal;font-variant-position:normal;font-variant-caps:normal;font-variant-numeric:normal;font-variant-alternates:normal;font-variant-east-asian:normal;font-feature-settings:normal;font-variation-settings:normal;text-indent:0;text-align:start;text-decoration:none;text-decoration-line:none;text-decoration-style:solid;text-decoration-color:#000000;letter-spacing:normal;word-spacing:normal;text-transform:none;writing-mode:lr-tb;direction:ltr;text-orientation:mixed;dominant-baseline:auto;baseline-shift:baseline;text-anchor:start;white-space:normal;shape-padding:0;shape-margin:0;inline-size:0;clip-rule:nonzero;display:inline;overflow:visible;visibility:visible;isolation:auto;mix-blend-mode:normal;color-interpolation:sRGB;color-interpolation-filters:linearRGB;solid-color:#000000;solid-opacity:1;vector-effect:none;fill:#000000;fill-opacity:0;fill-rule:nonzero;stroke:#660099;stroke-width:0.242411;stroke-linecap:round;stroke-linejoin:round;stroke-miterlimit:4;stroke-dasharray:none;stroke-dashoffset:700.32;stroke-opacity:1;color-rendering:auto;image-rendering:auto;shape-rendering:auto;text-rendering:auto;enable-background:accumulate;stop-color:#000000"
       d="m 17.456832,69.971397 c 9.248049,9.353091 24.382839,9.503957 33.823268,0.305113 8.959633,-8.730365 9.844472,-22.805453 2.101843,-32.326936 -6.051523,17.734193 -4.785224,13.680494 -6.048604,16.858258 -0.276925,0.214605 -1.031939,-0.06721 -2.713493,-0.909433 -2.618385,-1.298826 -5.131757,-3.302075 -7.549766,-5.077546 -0.368741,-0.27082 -0.723796,-0.537755 -1.058648,-0.790663 -0.699345,-0.524216 -1.333767,-1.00592 -1.91644,-1.41512 -1.473721,-1.045236 -2.645583,-1.646927 -3.861171,-1.298451 -0.22735,0.06518 -0.886983,0.635754 -1.819075,1.537708 -3.044796,2.946231 -8.991546,9.422631 -12.268936,13.359261 -0.187173,0.224872 -0.365502,0.441331 -0.534232,0.648471 -0.153686,-0.374116 -0.29708,-0.751108 -0.427048,-1.132024 -2.48676,-7.239181 -0.777729,-15.571919 5.08187,-21.281561 8.021713,-7.816439 20.757345,-7.732738 28.668768,0.128098"
       sodipodi:nodetypes="csccccccscccccc" />
    <path
       id="path1319"
       style="color:#000000;font-style:normal;font-variant:normal;font-weight:normal;font-stretch:normal;font-size:medium;line-height:normal;font-family:sans-serif;font-variant-ligatures:normal;font-variant-position:normal;font-variant-caps:normal;font-variant-numeric:normal;font-variant-alternates:normal;font-variant-east-asian:normal;font-feature-settings:normal;font-variation-settings:normal;text-indent:0;text-align:start;text-decoration:none;text-decoration-line:none;text-decoration-style:solid;text-decoration-color:#000000;letter-spacing:normal;word-spacing:normal;text-transform:none;writing-mode:lr-tb;direction:ltr;text-orientation:mixed;dominant-baseline:auto;baseline-shift:baseline;text-anchor:start;white-space:normal;shape-padding:0;shape-margin:0;inline-size:0;clip-rule:nonzero;display:inline;overflow:visible;visibility:visible;isolation:auto;mix-blend-mode:normal;color-interpolation:sRGB;color-interpolation-filters:linearRGB;solid-color:#000000;solid-opacity:1;vector-effect:none;fill:#000000;fill-opacity:0;fill-rule:nonzero;stroke:#ff6600;stroke-width:0.363616;stroke-linecap:round;stroke-linejoin:round;stroke-miterlimit:4;stroke-dasharray:none;stroke-dashoffset:700.32;stroke-opacity:1;color-rendering:auto;image-rendering:auto;shape-rendering:auto;text-rendering:auto;enable-background:accumulate;stop-color:#000000"
       d="M 50.296197,34.976387 C 40.980411,26.855512 26.787893,27.118518 17.779603,35.896308 l -8.6e-5,4.4e-5 v 0 c -8.6410093,8.419904 -9.5735434,21.811395 -2.683394,31.294613 7.234226,-7.711756 7.849194,-8.621067 16.573819,-17.122436 0.664461,0.03449 1.523089,0.661161 2.971111,1.806097 0.05821,0.04771 0.103554,0.117343 0.126471,0.19402 0.08214,0.289699 0.150828,0.582927 0.223893,0.87358 0.499554,1.979564 0.941524,3.939855 1.196142,5.972951 0.227003,1.826097 0.301322,3.693863 0.128898,5.625711 -0.193705,2.176202 -0.701538,4.431368 -1.649652,6.745222 -0.01437,0.04079 -0.02704,0.08167 -0.03721,0.123014 0.03273,-0.009 0.04955,-0.01183 0.06601,-0.01703 2.326315,-0.997239 3.684456,-1.9227 4.408468,-3.165065 0.716157,-1.228853 1.034215,-3.174891 0.74415,-6.231855 l -4.19e-4,8.7e-5 c -0.09186,-3.781606 -0.788493,-5.713574 -0.737045,-6.478595 0.05273,-0.783759 0.700166,-0.283222 2.485739,1.034551 0.506336,0.368193 1.18054,0.855022 1.918685,1.335566 0.221717,0.145404 0.456621,0.294679 0.702182,0.4448 1.414542,0.818909 2.533605,1.322711 3.394298,1.513111 0.865797,0.19151 1.502772,0.07627 1.998779,-0.393271 0.612808,-0.650565 3.118529,-6.90193 4.592846,-11.963313 1.985625,6.984474 0.169148,14.799129 -5.410377,20.235869 -8.056262,7.850109 -20.866365,7.732685 -28.769943,-0.229274"
       sodipodi:nodetypes="cccsccccccccccscccccccccsc" />
    <g
       aria-label="Serene"
       transform="matrix(1.1358153,0,0,0.88042484,10.80816,-8.0987405)"
       id="text1222-0"
       style="font-style:normal;font-variant:normal;font-weight:normal;font-stretch:normal;font-size:31.4713px;line-height:1.75;font-family:'Poiret One';-inkscape-font-specification:'Poiret One, Normal';font-variant-ligatures:normal;font-variant-caps:normal;font-variant-numeric:normal;font-variant-east-asian:normal;letter-spacing:0px;word-spacing:0px;stroke-width:1.68595">
      <path
         d="m 8.5381003,221.93831 q -0.7238399,-1.3218 -1.9826919,-2.07711 -1.2273807,-0.75531 -2.7694744,-0.75531 -1.5420937,0 -2.6435892,0.97561 -1.0700242,0.94414 -1.0700242,2.61212 v 0.15736 q 0,1.98269 2.202991,3.6192 0.944139,0.69236 2.1085771,1.38473 1.1959094,0.6609 2.3603475,1.44768 1.1959094,0.75531 2.1400484,1.63651 0.9756103,0.84973 1.5735654,2.10858 0.629426,1.25885 0.629426,2.76947 v 0.31471 q 0,2.98978 -2.0456349,4.75217 -2.0141632,1.76239 -5.0039367,1.76239 -3.9339125,0 -6.1054322,-3.24154 v -1.69945 q 0.8182538,1.79386 2.39181881,2.92683 1.60503629,1.1015 3.96538379,1.1015 2.3603475,0 4.091269,-1.51063 1.7309212,-1.51062 1.7309212,-4.02832 v -0.18883 q 0,-1.57357 -0.8182535,-2.86389 -0.8182538,-1.32179 -2.0456345,-2.14005 -1.2273807,-0.84972 -2.6750605,-1.76239 -1.4476798,-0.91267 -2.6750605,-1.69945 -1.22738069,-0.78678 -2.0456345,-1.98269 -0.8182538,-1.19591 -0.8182538,-2.61212 v -0.2203 q 0,-2.20299 1.41620851,-3.36743 1.41620849,-1.16444 3.49331429,-1.16444 2.8953596,0 4.5948098,2.14005 z"
         style="font-style:normal;font-variant:normal;font-weight:normal;font-stretch:normal;font-size:31.4713px;font-family:'Poiret One';-inkscape-font-specification:'Poiret One, Normal';font-variant-ligatures:normal;font-variant-caps:normal;font-variant-numeric:normal;font-variant-east-asian:normal;stroke-width:1.68595"
         id="path918" />
      <path
         d="m 21.315423,242.58348 h -0.283242 q -2.989774,0 -5.224236,-2.23446 -2.202991,-2.26593 -2.202991,-5.25571 0,-2.98977 2.202991,-5.16129 2.202991,-2.20299 5.444535,-2.20299 3.241544,0 5.57042,2.58064 l -9.881988,9.75611 q 2.045634,1.63651 3.933912,1.63651 1.888278,0 3.367429,-0.84973 1.510623,-0.8812 2.486233,-2.32888 v 1.60504 q -2.234462,2.45476 -5.413063,2.45476 z m -0.346185,-13.97326 q -2.486232,0 -4.437453,1.95122 -1.919749,1.91975 -1.919749,4.43746 0,2.5177 1.667979,4.40598 l 9.158148,-9.09521 q -1.951221,-1.69945 -4.468925,-1.69945 z"
         style="font-style:normal;font-variant:normal;font-weight:normal;font-stretch:normal;font-size:31.4713px;font-family:'Poiret One';-inkscape-font-specification:'Poiret One, Normal';font-variant-ligatures:normal;font-variant-caps:normal;font-variant-numeric:normal;font-variant-east-asian:normal;stroke-width:1.68595"
         id="path920" />
      <path
         d="m 38.089592,229.96349 q -1.384737,-1.38474 -3.052716,-1.38474 -1.667979,0 -2.958302,1.25885 -1.258852,1.25886 -1.258852,2.92684 v 9.44139 H 29.81264 v -14.16209 h 1.007082 v 2.10858 q 0.566483,-1.07003 1.762393,-1.76239 1.195909,-0.69237 2.67506,-0.69237 1.479151,0 2.832417,1.00708 z"
         style="font-style:normal;font-variant:normal;font-weight:normal;font-stretch:normal;font-size:31.4713px;font-family:'Poiret One';-inkscape-font-specification:'Poiret One, Normal';font-variant-ligatures:normal;font-variant-caps:normal;font-variant-numeric:normal;font-variant-east-asian:normal;stroke-width:1.68595"
         id="path922" />
      <path
         d="m 47.845683,242.58348 h -0.283242 q -2.989774,0 -5.224236,-2.23446 -2.202991,-2.26593 -2.202991,-5.25571 0,-2.98977 2.202991,-5.16129 2.202991,-2.20299 5.444535,-2.20299 3.241544,0 5.57042,2.58064 l -9.881988,9.75611 q 2.045634,1.63651 3.933912,1.63651 1.888278,0 3.36743,-0.84973 1.510622,-0.8812 2.486232,-2.32888 v 1.60504 q -2.234462,2.45476 -5.413063,2.45476 z m -0.346185,-13.97326 q -2.486232,0 -4.437453,1.95122 -1.919749,1.91975 -1.919749,4.43746 0,2.5177 1.667979,4.40598 l 9.158148,-9.09521 q -1.951221,-1.69945 -4.468925,-1.69945 z"
         style="font-style:normal;font-variant:normal;font-weight:normal;font-stretch:normal;font-size:31.4713px;font-family:'Poiret One';-inkscape-font-specification:'Poiret One, Normal';font-variant-ligatures:normal;font-variant-caps:normal;font-variant-numeric:normal;font-variant-east-asian:normal;stroke-width:1.68595"
         id="path924" />
      <path
         d="m 57.34998,242.20583 h -1.007081 v -14.16209 h 1.007081 v 2.86389 q 1.605037,-3.21007 5.476006,-3.21007 2.64359,0 4.437454,1.82533 1.793864,1.82534 1.793864,4.43746 v 8.24548 h -1.007082 v -8.24548 q 0,-2.17152 -1.542093,-3.77656 -1.510623,-1.60504 -3.682143,-1.60504 -2.171519,0 -3.839498,1.60504 -1.636508,1.60504 -1.636508,3.77656 z"
         style="font-style:normal;font-variant:normal;font-weight:normal;font-stretch:normal;font-size:31.4713px;font-family:'Poiret One';-inkscape-font-specification:'Poiret One, Normal';font-variant-ligatures:normal;font-variant-caps:normal;font-variant-numeric:normal;font-variant-east-asian:normal;stroke-width:1.68595"
         id="path926" />
      <path
         d="m 79.914851,242.58348 h -0.283242 q -2.989774,0 -5.224236,-2.23446 -2.202991,-2.26593 -2.202991,-5.25571 0,-2.98977 2.202991,-5.16129 2.202991,-2.20299 5.444535,-2.20299 3.241544,0 5.57042,2.58064 l -9.881988,9.75611 q 2.045635,1.63651 3.933913,1.63651 1.888278,0 3.367429,-0.84973 1.510622,-0.8812 2.486232,-2.32888 v 1.60504 q -2.234462,2.45476 -5.413063,2.45476 z m -0.346185,-13.97326 q -2.486232,0 -4.437453,1.95122 -1.919749,1.91975 -1.919749,4.43746 0,2.5177 1.667979,4.40598 l 9.158148,-9.09521 q -1.951221,-1.69945 -4.468925,-1.69945 z"
         style="font-style:normal;font-variant:normal;font-weight:normal;font-stretch:normal;font-size:31.4713px;font-family:'Poiret One';-inkscape-font-specification:'Poiret One, Normal';font-variant-ligatures:normal;font-variant-caps:normal;font-variant-numeric:normal;font-variant-east-asian:normal;stroke-width:1.68595"
         id="path928" />
    </g>
    <path
       d="m 93.975799,40.576629 q -1.067652,-1.949616 -2.924426,-3.063684 -1.810366,-1.114068 -4.084919,-1.114068 -2.274552,0 -3.899233,1.439004 -1.578264,1.392578 -1.578264,3.852816 v 0.232094 q 0,2.924434 3.249361,5.338246 1.392588,1.021225 3.110111,2.04245 1.76394,0.974818 3.481454,2.135302 1.76394,1.114068 3.156526,2.413813 1.438995,1.253327 2.320962,3.110101 0.928384,1.856783 0.928384,4.084919 v 0.464195 q 0,4.409851 -3.017244,7.009349 -2.970849,2.599488 -7.380695,2.599488 -5.802442,0 -9.005389,-4.781207 v -2.50666 q 1.20691,2.645919 3.527883,4.317017 2.367396,1.62468 5.848859,1.62468 3.481464,0 6.034536,-2.228136 2.553056,-2.228127 2.553056,-5.941697 v -0.27851 q 0,-2.320979 -1.2069,-4.224178 -1.206905,-1.949617 -3.017263,-3.156519 -1.810357,-1.253327 -3.945659,-2.599497 -2.135293,-1.346162 -3.94565,-2.506646 -1.810357,-1.160494 -3.017268,-2.924434 -1.206905,-1.763941 -1.206905,-3.852817 v -0.324936 q 0,-3.249361 2.08888,-4.966884 2.088876,-1.717523 5.152561,-1.717523 4.270586,0 6.777242,3.156527 z"
       style="font-style:normal;font-variant:normal;font-weight:normal;font-stretch:normal;font-size:51.1029px;line-height:1.75;font-family:'Poiret One';-inkscape-font-specification:'Poiret One, Normal';font-variant-ligatures:normal;font-variant-caps:normal;font-variant-numeric:normal;font-variant-east-asian:normal;letter-spacing:0px;word-spacing:0px;stroke-width:2.48675"
       id="path905" />
    <path
       d="m 112.82202,71.027812 h -0.41778 q -4.40986,0 -7.70564,-3.295778 -3.24936,-3.342209 -3.24936,-7.752063 0,-4.409846 3.24936,-7.61279 3.24936,-3.24937 8.03057,-3.24937 4.78121,0 8.21625,3.806399 L 106.3697,67.314255 q 3.01727,2.413812 5.80244,2.413812 2.78517,0 4.96689,-1.253327 2.22813,-1.299745 3.66714,-3.435038 v 2.367396 q -3.29579,3.620714 -7.98415,3.620714 z m -0.51063,-20.610257 q -3.66713,0 -6.54514,2.878008 -2.83159,2.831591 -2.83159,6.545148 0,3.713566 2.46023,6.498736 L 118.90297,52.92421 q -2.87801,-2.506655 -6.59158,-2.506655 z"
       style="font-style:normal;font-variant:normal;font-weight:normal;font-stretch:normal;font-size:51.1029px;line-height:1.75;font-family:'Poiret One';-inkscape-font-specification:'Poiret One, Normal';font-variant-ligatures:normal;font-variant-caps:normal;font-variant-numeric:normal;font-variant-east-asian:normal;letter-spacing:0px;word-spacing:0px;stroke-width:2.48675"
       id="path907" />
    <path
       d="m 137.56355,52.413598 q -2.04246,-2.04246 -4.50269,-2.04246 -2.46024,0 -4.36343,1.856783 -1.85678,1.856774 -1.85678,4.317012 v 13.925849 h -1.48542 V 49.582006 h 1.48542 v 3.110111 q 0.83555,-1.578264 2.59949,-2.599498 1.76394,-1.021225 3.94566,-1.021225 2.18171,0 4.17775,1.485421 z"
       style="font-style:normal;font-variant:normal;font-weight:normal;font-stretch:normal;font-size:51.1029px;line-height:1.75;font-family:'Poiret One';-inkscape-font-specification:'Poiret One, Normal';font-variant-ligatures:normal;font-variant-caps:normal;font-variant-numeric:normal;font-variant-east-asian:normal;letter-spacing:0px;word-spacing:0px;stroke-width:2.48675"
       id="path909" />
    <path
       d="m 151.95356,71.027812 h -0.41777 q -4.40985,0 -7.70564,-3.295778 -3.24936,-3.342209 -3.24936,-7.752063 0,-4.409846 3.24936,-7.61279 3.24937,-3.24937 8.03058,-3.24937 4.78121,0 8.21624,3.806399 l -14.57571,14.390045 q 3.01726,2.413812 5.80243,2.413812 2.78517,0 4.96688,-1.253327 2.22814,-1.299745 3.66714,-3.435038 v 2.367396 q -3.29577,3.620714 -7.98415,3.620714 z m -0.51061,-20.610257 q -3.66714,0 -6.54515,2.878008 -2.83159,2.831591 -2.83159,6.545148 0,3.713566 2.46024,6.498736 L 158.03451,52.92421 q -2.878,-2.506655 -6.59156,-2.506655 z"
       style="font-style:normal;font-variant:normal;font-weight:normal;font-stretch:normal;font-size:51.1029px;line-height:1.75;font-family:'Poiret One';-inkscape-font-specification:'Poiret One, Normal';font-variant-ligatures:normal;font-variant-caps:normal;font-variant-numeric:normal;font-variant-east-asian:normal;letter-spacing:0px;word-spacing:0px;stroke-width:2.48675"
       id="path911" />
    <path
       d="m 165.9722,70.470782 h -1.48543 V 49.582006 h 1.48543 v 4.224179 q 2.36739,-4.734791 8.07699,-4.734791 3.89923,0 6.54515,2.692331 2.64591,2.692332 2.64591,6.545148 v 12.161909 h -1.48543 V 58.308873 q 0,-3.202944 -2.27455,-5.570339 -2.22814,-2.367396 -5.43108,-2.367396 -3.20295,0 -5.66317,2.367396 -2.41382,2.367395 -2.41382,5.570339 z"
       style="font-style:normal;font-variant:normal;font-weight:normal;font-stretch:normal;font-size:51.1029px;line-height:1.75;font-family:'Poiret One';-inkscape-font-specification:'Poiret One, Normal';font-variant-ligatures:normal;font-variant-caps:normal;font-variant-numeric:normal;font-variant-east-asian:normal;letter-spacing:0px;word-spacing:0px;stroke-width:2.48675"
       id="path913" />
    <path
       d="m 199.25489,71.027812 h -0.41778 q -4.40984,0 -7.70563,-3.295778 -3.24936,-3.342209 -3.24936,-7.752063 0,-4.409846 3.24936,-7.61279 3.24936,-3.24937 8.03057,-3.24937 4.7812,0 8.21625,3.806399 l -14.57572,14.390045 q 3.01726,2.413812 5.80244,2.413812 2.78516,0 4.96688,-1.253327 2.22814,-1.299745 3.66714,-3.435038 v 2.367396 q -3.29579,3.620714 -7.98415,3.620714 z m -0.51061,-20.610257 q -3.66714,0 -6.54515,2.878008 -2.83159,2.831591 -2.83159,6.545148 0,3.713566 2.46023,6.498736 L 205.33584,52.92421 q -2.87801,-2.506655 -6.59156,-2.506655 z"
       style="font-style:normal;font-variant:normal;font-weight:normal;font-stretch:normal;font-size:51.1029px;line-height:1.75;font-family:'Poiret One';-inkscape-font-specification:'Poiret One, Normal';font-variant-ligatures:normal;font-variant-caps:normal;font-variant-numeric:normal;font-variant-east-asian:normal;letter-spacing:0px;word-spacing:0px;stroke-width:2.48675"
       id="path915" />
  </g>
</svg>
