<?xml version="1.0" encoding="UTF-8" standalone="no"?>
<svg
   xmlns:dc="http://purl.org/dc/elements/1.1/"
   xmlns:cc="http://creativecommons.org/ns#"
   xmlns:rdf="http://www.w3.org/1999/02/22-rdf-syntax-ns#"
   xmlns:svg="http://www.w3.org/2000/svg"
   xmlns="http://www.w3.org/2000/svg"
   xmlns:sodipodi="http://sodipodi.sourceforge.net/DTD/sodipodi-0.dtd"
   xmlns:inkscape="http://www.inkscape.org/namespaces/inkscape"
   width="400"
   height="400"
   viewBox="0 0 105.832 105.832"
   version="1.1"
   id="svg8"
   inkscape:version="1.0.1 (3bc2e813f5, 2020-09-07)"
   sodipodi:docname="logo.svg"
   inkscape:export-filename="/home/lxsameer/serene.png"
   inkscape:export-xdpi="72"
   inkscape:export-ydpi="72">
  <defs
     id="defs2" />
  <sodipodi:namedview
     id="base"
     pagecolor="#ffffff"
     bordercolor="#666666"
     borderopacity="1.0"
     inkscape:pageopacity="0.0"
     inkscape:pageshadow="2"
     inkscape:zoom="1.2995369"
     inkscape:cx="208.09865"
     inkscape:cy="310.43135"
     inkscape:document-units="px"
     inkscape:current-layer="g944"
     inkscape:document-rotation="0"
     showgrid="false"
     inkscape:window-width="1920"
     inkscape:window-height="1048"
     inkscape:window-x="0"
     inkscape:window-y="0"
     inkscape:window-maximized="1"
     showborder="true"
     units="px" />
  <metadata
     id="metadata5">
    <rdf:RDF>
      <cc:Work
         rdf:about="">
        <dc:format>image/svg+xml</dc:format>
        <dc:type
           rdf:resource="http://purl.org/dc/dcmitype/StillImage" />
        <dc:title></dc:title>
      </cc:Work>
    </rdf:RDF>
  </metadata>
  <g
     inkscape:label="Layer 1"
     inkscape:groupmode="layer"
     id="layer1">
    <g
       id="g944"
       transform="matrix(1.6723595,0,0,1.6722037,-20.055488,-87.312186)">
      <ellipse
         style="fill:#ffffff;stroke:none;stroke-width:1.49554;stroke-linejoin:round"
         id="path839"
         cx="43.633854"
         cy="83.858315"
         rx="31.641521"
         ry="31.64447" />
      <path
         id="path1315"
         style="color:#000000;font-style:normal;font-variant:normal;font-weight:normal;font-stretch:normal;font-size:medium;line-height:normal;font-family:sans-serif;font-variant-ligatures:normal;font-variant-position:normal;font-variant-caps:normal;font-variant-numeric:normal;font-variant-alternates:normal;font-variant-east-asian:normal;font-feature-settings:normal;font-variation-settings:normal;text-indent:0;text-align:start;text-decoration:none;text-decoration-line:none;text-decoration-style:solid;text-decoration-color:#000000;letter-spacing:normal;word-spacing:normal;text-transform:none;writing-mode:lr-tb;direction:ltr;text-orientation:mixed;dominant-baseline:auto;baseline-shift:baseline;text-anchor:start;white-space:normal;shape-padding:0;shape-margin:0;inline-size:0;clip-rule:nonzero;display:inline;overflow:visible;visibility:visible;isolation:auto;mix-blend-mode:normal;color-interpolation:sRGB;color-interpolation-filters:linearRGB;solid-color:#000000;solid-opacity:1;vector-effect:none;fill:#8800aa;fill-opacity:1;fill-rule:nonzero;stroke:#440055;stroke-width:0.303013;stroke-linecap:round;stroke-linejoin:round;stroke-miterlimit:4;stroke-dasharray:none;stroke-dashoffset:700.32;stroke-opacity:1;color-rendering:auto;image-rendering:auto;shape-rendering:auto;text-rendering:auto;enable-background:accumulate;stop-color:#000000"
         d="m 60.686302,58.319486 c -13.510743,-9.02176 -31.627983,-5.890141 -41.386339,6.80919 l 2.863062,1.911805 c 8.712621,-11.15572 24.649824,-13.854344 36.615657,-5.864194 11.96583,7.990152 15.58093,23.744775 8.61592,36.067456 l 2.86216,1.911202 c 7.99008,-13.880085 3.94029,-31.813689 -9.57046,-40.835459 z m -43.676021,10.23816 c -7.9893433,13.88007 -3.939096,31.814494 9.571349,40.836054 13.510456,9.02157 31.626962,5.88895 41.385442,-6.80979 l -2.86215,-1.9112 c -8.71278,11.15501 -24.649538,13.85325 -36.615072,5.8633 C 16.524325,98.546064 12.909028,82.791991 19.873339,70.469452 Z" />
      <g
         id="g1321"
         transform="matrix(0.45809875,0,0,0.45809875,86.980162,192.17444)">
        <path
           id="path1317"
           style="color:#000000;font-style:normal;font-variant:normal;font-weight:normal;font-stretch:normal;font-size:medium;line-height:normal;font-family:sans-serif;font-variant-ligatures:normal;font-variant-position:normal;font-variant-caps:normal;font-variant-numeric:normal;font-variant-alternates:normal;font-variant-east-asian:normal;font-feature-settings:normal;font-variation-settings:normal;text-indent:0;text-align:start;text-decoration:none;text-decoration-line:none;text-decoration-style:solid;text-decoration-color:#000000;letter-spacing:normal;word-spacing:normal;text-transform:none;writing-mode:lr-tb;direction:ltr;text-orientation:mixed;dominant-baseline:auto;baseline-shift:baseline;text-anchor:start;white-space:normal;shape-padding:0;shape-margin:0;inline-size:0;clip-rule:nonzero;display:inline;overflow:visible;visibility:visible;isolation:auto;mix-blend-mode:normal;color-interpolation:sRGB;color-interpolation-filters:linearRGB;solid-color:#000000;solid-opacity:1;vector-effect:none;fill:#000000;fill-opacity:0;fill-rule:nonzero;stroke:#660099;stroke-width:0.529167;stroke-linecap:round;stroke-linejoin:round;stroke-miterlimit:4;stroke-dasharray:none;stroke-dashoffset:700.32;stroke-opacity:1;color-rendering:auto;image-rendering:auto;shape-rendering:auto;text-rendering:auto;enable-background:accumulate;stop-color:#000000"
           d="m -142.85856,-215.9389 c 11.23345,26.4239 41.82064,38.91628 68.38213,27.85299 25.20874,-10.49987 37.90544,-38.51723 29.86209,-64.07066 l -6.12607,7.49137 c 0.003,0.0212 0.005,0.0404 0.0106,0.0608 -2.93361,4.48765 -18.50438,21.7245 -19.29953,21.9545 -0.73468,0.21246 -2.0397,-0.96727 -4.77345,-4.03011 -4.26694,-4.74361 -7.75362,-10.83195 -11.23021,-16.38134 -0.53012,-0.8464 -1.0356,-1.6739 -1.51138,-2.45667 -0.99689,-1.62674 -1.89628,-3.11495 -2.74905,-4.41438 -2.14859,-3.30741 -4.04184,-5.47181 -6.78887,-5.74352 -0.51378,-0.0508 -2.311597,0.57577 -4.92906,1.65534 -8.55018,3.52632 -25.83089,11.87879 -35.65046,17.22736 -0.56084,0.30556 -1.09696,0.60117 -1.6061,0.8856 -0.0106,-0.88283 0.002,-1.76321 0.045,-2.64074 0.7832,-16.69068 10.96022,-32.22182 27.44672,-39.0887 22.56981,-9.4007 48.34316,1.02364 58.06612,23.34351" />
        <path
           id="path1319"
           style="color:#000000;font-style:normal;font-variant:normal;font-weight:normal;font-stretch:normal;font-size:medium;line-height:normal;font-family:sans-serif;font-variant-ligatures:normal;font-variant-position:normal;font-variant-caps:normal;font-variant-numeric:normal;font-variant-alternates:normal;font-variant-east-asian:normal;font-feature-settings:normal;font-variation-settings:normal;text-indent:0;text-align:start;text-decoration:none;text-decoration-line:none;text-decoration-style:solid;text-decoration-color:#000000;letter-spacing:normal;word-spacing:normal;text-transform:none;writing-mode:lr-tb;direction:ltr;text-orientation:mixed;dominant-baseline:auto;baseline-shift:baseline;text-anchor:start;white-space:normal;shape-padding:0;shape-margin:0;inline-size:0;clip-rule:nonzero;display:inline;overflow:visible;visibility:visible;isolation:auto;mix-blend-mode:normal;color-interpolation:sRGB;color-interpolation-filters:linearRGB;solid-color:#000000;solid-opacity:1;vector-effect:none;fill:#000000;fill-opacity:0;fill-rule:nonzero;stroke:#ff6600;stroke-width:0.79375;stroke-linecap:round;stroke-linejoin:round;stroke-miterlimit:4;stroke-dasharray:none;stroke-dashoffset:700.32;stroke-opacity:1;color-rendering:auto;image-rendering:auto;shape-rendering:auto;text-rendering:auto;enable-background:accumulate;stop-color:#000000"
           d="m -48.04973,-260.50249 c -12.36305,-23.97826 -41.3716,-34.87219 -66.71725,-24.31527 l -2.1e-4,2e-5 v 0 c -24.31227,10.12649 -36.98699,36.54712 -30.64252,61.33651 20.8877,-9.82237 22.86764,-11.17221 47.41516,-21.39667 1.32043,0.60499 2.55801,2.56787 4.57418,6.05688 0.0797,0.14368 0.11563,0.32147 0.10039,0.4955 -0.0666,0.65394 -0.16333,1.30421 -0.24911,1.95278 -0.58031,4.41879 -1.26194,8.75211 -2.38233,13.0823 -1.00975,3.88795 -2.36285,7.73751 -4.26819,11.51842 -2.14527,4.25957 -4.99149,8.42643 -8.7783,12.35786 -0.062,0.0712 -0.12062,0.14394 -0.17454,0.21964 0.0737,0.008 0.11005,0.0159 0.14764,0.0186 5.52308,-0.1503 9.02393,-0.93452 11.49329,-2.87233 2.44254,-1.91672 4.6548,-5.60916 6.52767,-12.04533 l -9.2e-4,-1.6e-4 c 2.85849,-7.74689 3.00061,-12.22779 3.72098,-13.7386 0.73806,-1.5478 1.64869,-0.0109 4.21059,4.10059 0.7309,1.15476 1.70688,2.6854 2.81766,4.25477 0.33279,0.47355 0.68922,0.96557 1.06659,1.46789 2.21075,2.80054 4.07569,4.72381 5.66874,5.80315 1.60251,1.0857 2.98773,1.36476 4.3722,0.81143 1.92211,-0.76511 12.00377,-11.44592 18.95159,-20.57562 -1.59492,15.77037 -11.5728,30.1638 -27.27129,36.70247 -22.66702,9.4412 -48.56432,-1.11153 -58.18994,-23.63026" />
      </g>
    </g>
  </g>
</svg>
