<?xml version="1.0" encoding="UTF-8" standalone="no"?>
<svg
   width="512mm"
   height="512mm"
   viewBox="0 0 512 512"
   version="1.1"
   id="svg931"
   inkscape:export-filename="serene.png"
   inkscape:export-xdpi="25.4"
   inkscape:export-ydpi="25.4"
   inkscape:version="1.2.1 (9c6d41e410, 2022-07-14)"
   sodipodi:docname="serene.svg"
   xmlns:inkscape="http://www.inkscape.org/namespaces/inkscape"
   xmlns:sodipodi="http://sodipodi.sourceforge.net/DTD/sodipodi-0.dtd"
   xmlns="http://www.w3.org/2000/svg"
   xmlns:svg="http://www.w3.org/2000/svg"
   xmlns:rdf="http://www.w3.org/1999/02/22-rdf-syntax-ns#"
   xmlns:cc="http://creativecommons.org/ns#"
   xmlns:dc="http://purl.org/dc/elements/1.1/">
  <defs
     id="defs925" />
  <sodipodi:namedview
     id="base"
     pagecolor="#000000"
     bordercolor="#666666"
     borderopacity="1.0"
     inkscape:pageopacity="1"
     inkscape:pageshadow="2"
     inkscape:zoom="0.29845254"
     inkscape:cx="170.88144"
     inkscape:cy="1060.4701"
     inkscape:document-units="mm"
     inkscape:current-layer="g1039"
     inkscape:document-rotation="0"
     showgrid="false"
     inkscape:window-width="1920"
     inkscape:window-height="1063"
     inkscape:window-x="0"
     inkscape:window-y="0"
     inkscape:window-maximized="0"
     inkscape:showpageshadow="2"
     inkscape:pagecheckerboard="0"
     inkscape:deskcolor="#d1d1d1" />
  <metadata
     id="metadata928">
    <rdf:RDF>
      <cc:Work
         rdf:about="">
        <dc:format>image/svg+xml</dc:format>
        <dc:type
           rdf:resource="http://purl.org/dc/dcmitype/StillImage" />
      </cc:Work>
    </rdf:RDF>
  </metadata>
  <g
     inkscape:label="Layer 1"
     inkscape:groupmode="layer"
     id="layer1">
    <g
       id="g1039"
       transform="matrix(5.4643699,0,0,5.4643699,-646.86584,-18.784791)">
      <path
         id="path293"
         style="clip-rule:evenodd;fill:#ffffff;fill-opacity:1;fill-rule:evenodd;stroke:none;stroke-width:0.0676825;stroke-linecap:round;stroke-linejoin:round;stroke-opacity:1;image-rendering:optimizeQuality;shape-rendering:geometricPrecision;text-rendering:geometricPrecision"
         d="m 165.1472,4.0209328 c -1.69431,0 -3.25301,0.4054703 -4.67634,1.2165468 L 127.87228,24.027579 c -1.55881,0.743535 -2.84653,1.893108 -3.79538,3.380092 -1.01663,1.486995 -1.49162,3.24371 -1.49162,5.068664 v 35.6206 c 0,1.824974 0.47447,3.581711 1.49162,5.068684 0.94894,1.486995 2.23657,2.63658 3.79538,3.380083 l 32.59858,18.790093 c 1.42333,0.811046 2.98203,1.216548 4.67634,1.216548 0.0302,0 0.0503,-0.0032 0.0806,-0.0032 0.0302,2.32e-4 0.0604,0.0032 0.0806,0.0032 1.6943,0 3.25302,-0.40547 4.67633,-1.216548 l 32.5986,-18.790093 c 1.55881,-0.743535 2.84655,-1.893088 3.79538,-3.380083 1.01665,-1.486973 1.49162,-3.24371 1.49162,-5.068684 v -35.6206 c 0,-1.824954 -0.47547,-3.581669 -1.49162,-5.068664 -0.94894,-1.486984 -2.23657,-2.6366 -3.79538,-3.380092 L 169.98472,5.2374796 c -1.42332,-0.8111397 -2.98203,-1.2165468 -4.67634,-1.2165468 -0.0302,0 -0.0604,0.00316 -0.0806,0.00316 -0.0302,-1.475e-4 -0.0503,-0.00316 -0.0806,-0.00316 z m 0,7.4347692 c 0.0302,0 0.0604,0.01106 0.0806,0.01106 0.0302,-0.0011 0.0604,-0.01106 0.0806,-0.01106 0.33847,0 0.67695,0.06826 0.94794,0.271142 l 32.73594,18.857089 0.26998,0.06826 v 0.06731 c 0.33848,0.135118 0.67797,0.40567 0.88045,0.676023 0.20348,0.337959 0.27199,0.675517 0.27199,1.08104 v 35.620589 c 0,0.405576 -0.0705,0.743134 -0.27199,1.081061 -0.20349,0.270247 -0.54197,0.540905 -0.88045,0.676023 v 0.06826 l -0.26998,0.134011 -32.73594,18.858585 c -0.27099,0.135129 -0.60947,0.202535 -0.94794,0.202535 -0.0302,0 -0.0604,-0.0084 -0.0806,-0.0084 -0.0302,0 -0.0604,0.0084 -0.0806,0.0084 -0.33848,0 -0.67696,-0.06731 -0.94794,-0.202535 L 131.46337,70.05651 131.1934,69.922499 v -0.06826 c -0.33848,-0.135118 -0.67796,-0.405776 -0.88045,-0.676023 -0.20348,-0.337958 -0.27199,-0.675517 -0.27199,-1.081061 V 32.47643 c 0,-0.405565 0.0705,-0.743123 0.27199,-1.081029 0.2035,-0.270353 0.54197,-0.540895 0.88045,-0.676023 v -0.06732 l 0.26997,-0.06826 32.73589,-18.857121 c 0.27098,-0.202841 0.60946,-0.271152 0.94794,-0.271152 z" />
      <path
         id="path1019"
         style="clip-rule:evenodd;fill:#5e246d;fill-opacity:1;fill-rule:evenodd;stroke:none;stroke-width:0.0608809;stroke-linecap:round;stroke-linejoin:round;stroke-opacity:1;image-rendering:optimizeQuality;shape-rendering:geometricPrecision;text-rendering:geometricPrecision"
         d="m 165.1553,8.6703245 c -1.52405,0 -2.92581,0.364799 -4.2061,1.094368 L 131.62653,26.666424 c -1.40216,0.668814 -2.56034,1.702681 -3.41384,3.040234 -0.91447,1.337561 -1.34213,2.918061 -1.34213,4.559619 v 32.040724 c 0,1.641575 0.4272,3.221583 1.34213,4.559126 0.85358,1.337564 2.01168,2.37194 3.41384,3.040727 l 29.32267,16.901731 c 1.28029,0.729541 2.68205,1.094366 4.2061,1.094366 0.0272,0 0.0453,-0.0029 0.0725,-0.0029 0.0272,2.1e-4 0.0544,0.0029 0.0725,0.0029 1.52404,0 2.9263,-0.364797 4.20658,-1.094366 l 29.32268,-16.901731 c 1.40215,-0.668814 2.56034,-1.703163 3.41383,-3.040727 0.91448,-1.337543 1.34165,-2.917551 1.34165,-4.559126 V 34.266277 c 0,-1.641558 -0.42761,-3.222058 -1.34165,-4.559619 -0.85357,-1.337553 -2.01168,-2.37146 -3.41383,-3.040234 L 169.50681,9.7646925 c -1.28028,-0.729626 -2.68254,-1.094368 -4.20658,-1.094368 -0.0272,0 -0.0544,0.0029 -0.0725,0.0029 -0.0272,-1.33e-4 -0.0453,-0.0029 -0.0725,-0.0029 z" />
      <path
         id="path1052"
         style="clip-rule:evenodd;fill:#8800aa;fill-opacity:1;fill-rule:evenodd;stroke:none;stroke-width:0.0608809;stroke-linecap:round;stroke-linejoin:round;stroke-opacity:1;image-rendering:optimizeQuality;shape-rendering:geometricPrecision;text-rendering:geometricPrecision"
         d="m 165.15533,8.670325 c -1.52405,0 -2.92612,0.364723 -4.2064,1.094292 l -29.32265,16.901821 c -1.40215,0.668814 -2.56047,1.702863 -3.41397,3.040416 -0.91447,1.337562 -1.34172,2.917739 -1.34172,4.559297 V 66.30712 c 0,1.641577 0.4268,3.221773 1.34172,4.559316 0.85358,1.337562 2.01182,2.371621 3.41397,3.040407 l 29.32265,16.901815 c 1.28028,0.729542 2.68235,1.094293 4.2064,1.094293 0.0272,0 0.0453,-0.0028 0.0725,-0.0028 0.0272,2.08e-4 0.0544,0.0028 0.0725,0.0028 1.52404,0 2.92611,-0.364723 4.20639,-1.094293 l 29.32261,-16.901815 c 1.40215,-0.668815 2.56048,-1.702845 3.41397,-3.040407 0.91448,-1.337543 1.34172,-2.917739 1.34172,-4.559316 V 34.266151 c 0,-1.641558 -0.42769,-3.221735 -1.34172,-4.559297 -0.85358,-1.337553 -2.01182,-2.37164 -3.41397,-3.040416 L 169.50673,9.764617 c -1.28028,-0.729626 -2.68235,-1.094292 -4.20639,-1.094292 -0.0272,0 -0.0544,0.0028 -0.0725,0.0028 -0.0272,-1.32e-4 -0.0453,-0.0028 -0.0725,-0.0028 z m 0,6.687625 c 0.0272,0 0.0544,0.0099 0.0725,0.0099 0.0272,-9.48e-4 0.0544,-0.0099 0.0725,-0.0099 0.30446,0 0.60892,0.0614 0.85267,0.243894 l 29.44621,16.962079 0.24284,0.0614 v 0.06055 c 0.30447,0.121539 0.60984,0.364903 0.79198,0.608087 0.18303,0.303996 0.24465,0.607632 0.24465,0.972402 v 32.04096 c 0,0.364818 -0.0634,0.668454 -0.24465,0.972422 -0.18305,0.243089 -0.48751,0.486547 -0.79198,0.608087 v 0.0614 L 195.59921,68.069776 166.153,85.0332 c -0.24375,0.121549 -0.54821,0.182181 -0.85267,0.182181 -0.0272,0 -0.0544,-0.0076 -0.0725,-0.0076 -0.0272,0 -0.0544,0.0076 -0.0725,0.0076 -0.30447,0 -0.60893,-0.06055 -0.85268,-0.182181 L 134.8565,68.069776 134.61366,67.949231 v -0.0614 c -0.30447,-0.12154 -0.60984,-0.364998 -0.79198,-0.608087 -0.18303,-0.303996 -0.24465,-0.607632 -0.24465,-0.972422 V 34.266236 c 0,-0.364808 0.0634,-0.668444 0.24465,-0.972393 0.18305,-0.243184 0.48751,-0.486538 0.79198,-0.608087 v -0.06055 l 0.24284,-0.0614 29.44615,-16.962107 c 0.24375,-0.182456 0.54821,-0.243904 0.85268,-0.243904 z" />
      <path
         id="path1050"
         style="clip-rule:evenodd;fill:#ffffff;fill-opacity:1;fill-rule:evenodd;stroke:none;stroke-width:1.41896;stroke-linecap:round;stroke-linejoin:round;stroke-miterlimit:4;stroke-dasharray:none;stroke-opacity:1;image-rendering:optimizeQuality;shape-rendering:geometricPrecision;text-rendering:geometricPrecision"
         d="m 165.17999,20.897696 c -1.07631,0 -2.06645,0.257548 -2.9705,0.772834 l -20.70721,11.93581 c -0.99023,0.472268 -1.8082,1.202568 -2.41097,2.147113 -0.64608,0.944583 -0.9475,2.060499 -0.9475,3.219727 v 3.633996 h 4.73462 v 0.0163 c 6.8149,-0.117304 21.45623,-0.03705 21.98758,0.42094 0.63431,0.547085 0.88168,1.721805 1.21596,3.772099 0.009,0.08405 -0.009,0.175141 -0.0634,0.254469 -0.20117,0.296596 -0.41955,0.585687 -0.63068,0.875849 -1.43759,1.978472 -2.91387,3.896301 -4.65022,5.726257 -1.56119,1.64223 -3.31765,3.199013 -5.3842,4.613912 -2.3275,1.594324 -5.04746,3.006097 -8.26853,4.121131 -0.0544,0.0216 -0.10692,0.04245 -0.15766,0.0687 0.0453,0.01895 0.0634,0.02985 0.0816,0.038 3.31692,1.018387 5.58871,1.336814 7.53438,0.906142 1.92437,-0.42599 4.15057,-1.738557 6.8544,-4.417186 3.6135,-3.105379 4.80762,-5.200093 5.60901,-5.773539 0.82096,-0.587478 0.98071,0.319811 1.48526,2.772322 0.1486,0.691138 0.34886,1.609342 0.61979,2.571786 0.0816,0.289992 0.17036,0.592823 0.27003,0.905195 0.6198,1.762624 1.25292,3.04215 1.93199,3.867638 0.68322,0.830387 1.43677,1.234812 2.39574,1.246656 1.39717,0.018 8.63198,-2.82147 13.87373,-5.602348 v 2.608683 c 0,0.257643 -0.0453,0.471993 -0.17217,0.686713 -0.12957,0.171702 -0.34433,0.343584 -0.55999,0.42943 v 0.0434 l -0.17216,0.08499 -20.79447,11.979349 c -0.17217,0.08585 -0.38693,0.128589 -0.60258,0.128589 -0.0181,0 -0.0363,-0.0057 -0.0544,-0.0057 -0.0181,0 -0.0362,0.0057 -0.0544,0.0057 -0.21567,0 -0.43043,-0.04245 -0.60259,-0.128589 l -20.79447,-11.979349 -0.17217,-0.08499 v -0.0434 c -0.21475,-0.08585 -0.43041,-0.257728 -0.55999,-0.42943 -0.12957,-0.214625 -0.17216,-0.42907 -0.17216,-0.686713 V 48.480119 h -4.73562 v 13.120052 c 0,1.159265 0.30174,2.275172 0.94759,3.219727 0.60258,0.944564 1.42074,1.674816 2.41088,2.147103 l 20.70729,11.935838 c 0.90433,0.515191 1.8942,0.77274 2.97051,0.77274 0.0181,0 0.0363,-0.0019 0.0544,-0.0019 0.0181,1.42e-4 0.0363,0.0019 0.0544,0.0019 1.07622,0 2.06645,-0.257549 2.9705,-0.77274 l 20.7072,-11.935838 c 0.99023,-0.472268 1.8082,-1.202539 2.41097,-2.147113 0.64608,-0.944555 0.94746,-2.060461 0.94746,-3.219717 v -9.607122 l -4.70903,2.131015 c -0.003,0.0019 -0.007,0.0028 -0.009,0.0038 l -0.0181,0.0085 v 9.38e-4 c -3.48484,1.756371 -11.14498,4.995067 -11.61364,4.952542 -0.48841,-0.04434 -0.97229,-0.86085 -1.83811,-2.850834 -1.36047,-3.088617 -1.92382,-6.659801 -2.61575,-9.97412 -0.10602,-0.505431 -0.20116,-0.997673 -0.28996,-1.462304 -0.18938,-0.967172 -0.35611,-1.848631 -0.54188,-2.632334 -0.4576,-1.990419 -1.04505,-3.389012 -2.60913,-4.059636 -0.78019,-0.334535 -7.12363,-0.491692 -13.78929,-0.447414 -3.89132,0.02615 -7.80693,0.126609 -10.86815,0.294151 0.0634,-0.03885 0.12596,-0.07504 0.19029,-0.10022 v -0.04245 l 0.17126,-0.0434 20.79447,-11.978402 c 0.17217,-0.128864 0.38692,-0.172062 0.60258,-0.172062 0.0181,0 0.0363,0.0076 0.0544,0.0076 0.0181,-9.38e-4 0.0363,-0.0076 0.0544,-0.0076 0.21566,0 0.43041,0.0434 0.60258,0.172062 l 20.79455,11.978402 0.17127,0.0434 v 0.04245 c 0.21566,0.08585 0.43041,0.257643 0.55999,0.42943 0.12958,0.21472 0.17308,0.42907 0.17308,0.686713 v 8.600731 l 4.73549,-2.046854 v -6.553877 c 0,-1.159256 -0.30175,-2.275152 -0.94747,-3.219726 -0.60258,-0.944555 -1.42073,-1.674807 -2.41096,-2.147094 l -20.7073,-11.935801 c -0.90433,-0.515191 -1.89419,-0.772739 -2.9705,-0.772739 -0.0181,0 -0.0363,0.0028 -0.0544,0.0028 -0.0181,-9.5e-5 -0.0363,-0.0028 -0.0544,-0.0028 z" />
    </g>
  </g>
</svg>
